<svg width="153" height="31" viewBox="0 0 153 31" fill="none" xmlns="http://www.w3.org/2000/svg">
<g clip-path="url(#clip0_59_4992)">
<path d="M90.29 18.8799L95.9951 7.66016H100.767L91.7539 24.2998C90.4005 26.8298 88.9168 28.6004 87.3027 29.6104C85.6886 30.6203 83.8334 31.07 81.748 30.96L82.4502 26.9697C83.6332 26.9897 84.566 26.7803 85.2578 26.3203C85.9495 25.8603 86.5909 25.05 87.1924 23.8701L87.293 23.7002L83.4229 7.66016H87.8242L90.29 18.8799ZM146.794 7.2002C148.238 7.2002 149.511 7.50989 150.594 8.12988C151.686 8.74982 152.489 9.61965 153 10.7295L149.13 12.6602C148.729 11.5502 147.877 11 146.563 11C145.25 11 144.529 11.4799 144.328 12.4297C144.238 12.9397 144.468 13.3399 145.01 13.6299C145.551 13.9198 146.243 14.1704 147.075 14.4004C147.907 14.6204 148.729 14.8898 149.541 15.2197C150.353 15.5397 150.995 16.0999 151.456 16.8799C151.927 17.6698 152.048 18.6798 151.827 19.9297C151.536 21.5497 150.754 22.7603 149.471 23.5703C148.188 24.3802 146.614 24.7802 144.749 24.7803L144.759 24.7598C141.35 24.7597 139.094 23.3999 137.981 20.6699L141.852 18.7402C142.293 20.16 143.386 20.8701 145.12 20.8701C146.563 20.8701 147.375 20.44 147.556 19.5703C147.626 19.1004 147.375 18.7304 146.824 18.4404C146.273 18.1504 145.581 17.8896 144.759 17.6396C143.937 17.3997 143.124 17.0997 142.322 16.7598C141.52 16.4197 140.889 15.8397 140.418 15.0498C139.947 14.2498 139.816 13.2598 140.017 12.0898C140.307 10.5399 141.1 9.32948 142.403 8.47949C143.706 7.62974 145.17 7.20021 146.794 7.2002ZM63.2207 7.2002C65.6168 7.2002 67.2915 8.10039 68.3643 9.90039L68.7656 7.66992V7.66016H73.0664L70.1289 24.2998H65.8281L66.0986 22.7695C64.655 24.0995 62.8103 24.7695 60.5547 24.7695C58.0383 24.7695 56.1733 23.8498 54.9502 22.0098C53.7271 20.1698 53.3462 18.0298 53.8174 15.5898C54.2384 13.2101 55.311 11.2203 57.0352 9.61035C58.7594 8.00045 60.8248 7.20029 63.2207 7.2002ZM131.365 7.17969C133.079 7.17974 134.544 7.5704 135.767 8.36035C136.989 9.1503 137.872 10.2 138.403 11.5098L134.503 13.5703C133.901 12.1304 132.738 11.4102 130.994 11.4102C129.701 11.4102 128.547 11.8302 127.545 12.6602C126.532 13.4901 125.911 14.5602 125.69 15.8701C125.47 17.2001 125.701 18.3097 126.393 19.1797C127.084 20.0596 128.066 20.4901 129.359 20.4902C131.094 20.4902 132.477 19.7498 133.5 18.2598L136.969 20.4902C136.127 21.87 134.994 22.9205 133.581 23.6504C132.168 24.3803 130.643 24.7499 128.989 24.75L128.999 24.7598C126.423 24.7598 124.397 23.8803 122.943 22.1104C121.49 20.3504 120.969 18.1896 121.39 15.6396C121.771 13.1998 122.894 11.18 124.778 9.58008C126.663 7.98013 128.859 7.17969 131.365 7.17969ZM108.587 7.62988H112.387L111.614 11.7598H107.875L107.885 11.7803L106.651 18.7002C106.491 19.57 106.682 20.0898 107.224 20.2598C107.765 20.4297 108.728 20.4796 110.131 20.3896L109.459 24.2803C106.652 24.6103 104.667 24.32 103.504 23.4102C102.331 22.5002 101.95 20.9197 102.351 18.6797L103.584 11.7598H100.677L101.408 7.62988H104.275L104.877 4.26953L109.419 2.96973L108.587 7.62988ZM22.0967 24.2998H17.084L15.6797 20.1104H6.37598L4.97266 24.2998H0L8.18066 1H13.8857L22.0967 24.2998ZM28.9639 24.2998H24.3623V1H28.9639V24.2998ZM80.2148 14.0098L78.4102 24.2998H74.1084L75.9434 13.8496L78.3799 0H82.6807L80.2148 14.0098ZM116.788 24.2998H112.486L115.424 7.66016H119.726L116.788 24.2998ZM46.0371 7.19043C47.9119 7.19043 49.3563 7.8098 50.3789 9.0498L50.3584 9.04004C51.381 10.29 51.712 11.9603 51.3311 14.0703L49.5264 24.29H45.2256L46.9297 14.5996C47.1301 13.4698 46.9797 12.62 46.4785 12.04C45.9772 11.46 45.2453 11.1699 44.2227 11.1699C43.2001 11.17 42.3081 11.4703 41.5361 12.0703C40.8062 12.6451 40.2811 13.4957 39.9648 14.6211L40.7236 10.25H36.4434L35.6729 14.6396H39.96C39.948 14.6828 39.9333 14.7256 39.9219 14.7695L38.248 24.29H33.9463L35.6494 14.6504H31.3604L32.1416 10.25H36.4326L36.8945 7.65039H41.1953L40.8643 9.4502C42.1775 7.94028 43.9018 7.19051 46.0371 7.19043ZM63.4717 11.29C62.2085 11.2901 61.0055 11.7101 60.0029 12.54C59.0004 13.37 58.3783 14.5102 58.1377 15.9502C57.8972 17.35 58.1281 18.4904 58.8398 19.3604C59.5517 20.2402 60.5749 20.6797 61.9082 20.6797L61.8975 20.6699C63.1908 20.6699 64.3344 20.26 65.3369 19.46C66.3393 18.65 66.9808 17.5799 67.2715 16.25L67.3418 15.7197C67.5222 14.3699 67.2311 13.2902 66.4893 12.4902C65.7474 11.6902 64.7349 11.29 63.4717 11.29ZM7.83008 15.8096H14.2461L11.0381 6.29004L7.83008 15.8096ZM39.9619 14.6396H39.96C39.9617 14.6335 39.9631 14.6272 39.9648 14.6211L39.9619 14.6396ZM118.812 0.370117C119.544 0.370117 120.136 0.639922 120.567 1.16992C120.998 1.69992 121.159 2.32028 121.049 3.03027C120.918 3.76018 120.547 4.3797 119.945 4.88965H119.956C119.355 5.39965 118.692 5.66016 117.95 5.66016C117.209 5.66006 116.637 5.39979 116.216 4.87988C115.795 4.35999 115.635 3.74006 115.745 3.03027C115.855 2.30037 116.216 1.67035 116.808 1.15039C117.409 0.630464 118.081 0.37019 118.812 0.370117Z" fill="url(#paint0_linear_59_4992)"/>
</g>
<defs>
<linearGradient id="paint0_linear_59_4992" x1="0" y1="15.4881" x2="153" y2="15.4881" gradientUnits="userSpaceOnUse">
<stop stop-color="#25EE62"/>
<stop offset="1" stop-color="#00CE95"/>
</linearGradient>
<clipPath id="clip0_59_4992">
<rect width="153" height="30.97" fill="white"/>
</clipPath>
</defs>
</svg>
