<svg width="60" height="60" viewBox="0 0 60 60" fill="none" xmlns="http://www.w3.org/2000/svg">
<rect y="60" width="60" height="60" rx="8" transform="rotate(-90 0 60)" fill="url(#paint0_linear_61_11)"/>
<g clip-path="url(#clip0_61_11)">
<path d="M26.0967 41.2998H21.084L19.6797 37.1104H10.376L8.97266 41.2998H4L12.1807 18H17.8857L26.0967 41.2998ZM32.9639 41.2998H28.3623V18H32.9639V41.2998ZM50.0371 24.1904C51.9119 24.1904 53.3563 24.8098 54.3789 26.0498L54.3584 26.04C55.381 27.29 55.712 28.9603 55.3311 31.0703L53.5264 41.29H49.2256L50.9297 31.5996C51.1301 30.4698 50.9797 29.62 50.4785 29.04C49.9772 28.46 49.2453 28.1699 48.2227 28.1699C47.2001 28.17 46.3081 28.4703 45.5361 29.0703C44.8062 29.6451 44.2811 30.4957 43.9648 31.6211L44.7236 27.25H40.4434L39.6729 31.6396H43.96C43.948 31.6828 43.9333 31.7256 43.9219 31.7695L42.248 41.29H37.9463L39.6494 31.6504H35.3604L36.1416 27.25H40.4326L40.8945 24.6504H45.1953L44.8643 26.4502C46.1775 24.9403 47.9018 24.1905 50.0371 24.1904ZM11.8301 32.8096H18.2461L15.0381 23.29L11.8301 32.8096ZM43.9619 31.6396H43.96C43.9617 31.6335 43.9631 31.6272 43.9648 31.6211L43.9619 31.6396Z" fill="white"/>
</g>
<defs>
<linearGradient id="paint0_linear_61_11" x1="45.4286" y1="106.268" x2="12.3163" y2="68.6179" gradientUnits="userSpaceOnUse">
<stop stop-color="#25EE62"/>
<stop offset="1" stop-color="#00CE95"/>
</linearGradient>
<clipPath id="clip0_61_11">
<rect width="51.4843" height="25.2998" fill="white" transform="translate(4 17)"/>
</clipPath>
</defs>
</svg>
