<svg width="60" height="60" viewBox="0 0 60 60" fill="none" xmlns="http://www.w3.org/2000/svg">
<rect y="60" width="60" height="60" rx="8" transform="rotate(-90 0 60)" fill="url(#paint0_linear_61_10)"/>
<g clip-path="url(#clip0_61_10)">
<path d="M20.2197 17.8799C22.3896 17.8799 24.3798 18.3695 26.1797 19.3594C27.9797 20.3494 29.3801 21.6598 30.3701 23.2998L26.4404 25.5596C25.8904 24.6096 25.0497 23.8295 23.9297 23.2295C22.8098 22.6296 21.5596 22.3301 20.1797 22.3301C17.9598 22.3301 16.1401 23.0599 14.7002 24.5098C13.2702 25.9597 12.5498 27.7996 12.5498 30.0195C12.5498 32.2395 13.2805 34.03 14.7305 35.46C16.1804 36.8897 18.1101 37.6093 20.5098 37.6094C22.2897 37.6094 23.7599 37.2197 24.9199 36.4297C26.0799 35.6397 26.8798 34.5596 27.2998 33.1797H20.2402V29.1201H31.9199L31.9297 29.1299V30.9297C31.9297 34.2595 30.8603 36.9496 28.7305 39.0195C26.6006 41.0794 23.8503 42.12 20.4805 42.1201C16.8905 42.1201 13.91 40.9494 11.54 38.6094C9.18021 36.2695 8.00009 33.4098 8 30.04C8 26.67 9.16977 23.7592 11.5098 21.4092C13.8497 19.0593 16.7499 17.8799 20.2197 17.8799ZM38.7305 32H43.3193L41.6201 41.6494H37.0303L38.7295 32H34.1406L34.9102 27.5996H39.5L38.7305 32ZM51.2402 22.7393H44.9502L44.1006 27.5996H39.5L40.3604 22.7393H34.1006L34.8701 18.3496H52.0098L51.2402 22.7393Z" fill="white"/>
</g>
<defs>
<linearGradient id="paint0_linear_61_10" x1="45.4286" y1="106.268" x2="12.3163" y2="68.6179" gradientUnits="userSpaceOnUse">
<stop stop-color="#00BFFF"/>
<stop offset="1" stop-color="#0057FF"/>
</linearGradient>
<clipPath id="clip0_61_10">
<rect width="44.0098" height="24.2402" fill="white" transform="translate(8 17.8799)"/>
</clipPath>
</defs>
</svg>
