<svg width="123" height="25" viewBox="0 0 123 25" fill="none" xmlns="http://www.w3.org/2000/svg">
<g clip-path="url(#clip0_59_5034)">
<path d="M116.3 7.2002C117.74 7.2002 119.01 7.50989 120.09 8.12988C121.18 8.74988 121.98 9.62047 122.49 10.7305L118.63 12.6602C118.23 11.5502 117.379 11 116.069 11C114.76 11.0001 114.04 11.48 113.84 12.4297C113.75 12.9396 113.98 13.3399 114.52 13.6299C115.06 13.9199 115.75 14.1704 116.58 14.4004C117.41 14.6204 118.23 14.8898 119.04 15.2197C119.85 15.5397 120.49 16.0999 120.95 16.8799C121.42 17.6698 121.539 18.6798 121.319 19.9297C121.029 21.5497 120.25 22.7603 118.97 23.5703C117.69 24.3802 116.12 24.7803 114.26 24.7803L114.27 24.7598C110.87 24.7597 108.62 23.3999 107.51 20.6699L111.37 18.7402C111.81 20.16 112.9 20.8701 114.63 20.8701C116.07 20.8701 116.879 20.4401 117.06 19.5703C117.13 19.1004 116.88 18.7304 116.33 18.4404C115.78 18.1504 115.09 17.8896 114.27 17.6396C113.45 17.3997 112.64 17.0997 111.84 16.7598C111.04 16.4198 110.409 15.8398 109.939 15.0498C109.47 14.2499 109.34 13.2597 109.54 12.0898C109.83 10.54 110.62 9.33043 111.92 8.48047C113.22 7.63047 114.68 7.2002 116.3 7.2002ZM12.2197 0.530273C14.3896 0.530273 16.3798 1.0199 18.1797 2.00977C19.9797 2.99977 21.3801 4.3102 22.3701 5.9502L18.4404 8.20996C17.8904 7.25996 17.0497 6.47988 15.9297 5.87988C14.8098 5.27999 13.5596 4.98047 12.1797 4.98047C9.95985 4.98054 8.14012 5.71025 6.7002 7.16016C5.27022 8.61013 4.54983 10.45 4.5498 12.6699C4.5498 14.8899 5.28047 16.6804 6.73047 18.1104C8.18038 19.54 10.1101 20.2597 12.5098 20.2598C14.2897 20.2598 15.7599 19.87 16.9199 19.0801C18.0799 18.2901 18.8798 17.21 19.2998 15.8301H12.2402V11.7705H23.9199L23.9297 11.7803V13.5801C23.9297 16.9099 22.8603 19.6 20.7305 21.6699C18.6006 23.7298 15.8503 24.7704 12.4805 24.7705C8.89047 24.7705 5.91004 23.5998 3.54004 21.2598C1.18021 18.9199 9.3496e-05 16.0602 0 12.6904C0 9.32043 1.16977 6.40957 3.50977 4.05957C5.84968 1.70971 8.7499 0.530335 12.2197 0.530273ZM34.9102 7.19043C37.3701 7.19044 39.4599 8.04024 41.1699 9.74023C42.8799 11.4402 43.7305 13.5205 43.7305 15.9805C43.7304 18.4402 42.8798 20.5198 41.1699 22.2197C39.4599 23.9197 37.3801 24.7695 34.9102 24.7695C32.4402 24.7695 30.3699 23.9197 28.6699 22.2197C26.9702 20.5199 26.1202 18.4402 26.1201 15.9805C26.1201 13.5206 26.9701 11.4402 28.6699 9.74023C30.3699 8.04023 32.4502 7.19043 34.9102 7.19043ZM71 7.17969C73.55 7.17969 75.5504 8.10996 76.9404 9.95996C78.3304 11.8099 78.8003 13.9604 78.3604 16.4004C77.9603 18.7502 76.82 20.7299 74.9502 22.3398C73.0702 23.9498 70.94 24.75 68.54 24.75V24.7598C65.7903 24.7597 63.7103 23.8302 62.3203 21.9805C60.9204 20.1306 60.4703 17.9503 60.9502 15.4404C61.4202 13.0705 62.5702 11.1003 64.4102 9.53027C66.2501 7.9603 68.4501 7.17971 71 7.17969ZM90.7705 7.17969C93.3203 7.17978 95.32 8.11012 96.71 9.95996C98.1 11.81 98.5699 13.9604 98.1299 16.4004C97.7298 18.7502 96.5896 20.7299 94.7197 22.3398C92.8399 23.9497 90.7103 24.7499 88.3105 24.75V24.7598C85.5606 24.7598 83.4798 23.8304 82.0898 21.9805C80.6899 20.1306 80.2399 17.9502 80.7197 15.4404C81.1897 13.0706 82.3399 11.1002 84.1797 9.53027C86.0197 7.96027 88.2205 7.17969 90.7705 7.17969ZM51.7305 14.6504H56.3193L54.6201 24.2998H50.0303L51.7295 14.6504H47.1406L47.9102 10.25H52.5L51.7305 14.6504ZM105.91 14.0098L104.109 24.2998H99.8203L101.649 13.8496L104.08 0H108.37L105.91 14.0098ZM70.46 11.3896C69.2001 11.3897 68.1 11.8098 67.1201 12.6396C66.1301 13.4696 65.5102 14.5902 65.2402 15.9902C65.0003 17.3901 65.22 18.5001 65.9199 19.3301C66.6199 20.1601 67.5901 20.5801 68.8301 20.5801V20.5703C70.0901 20.5703 71.2302 20.1496 72.2402 19.3096C73.25 18.4696 73.8598 17.35 74.0898 15.9502C74.3598 14.5702 74.1299 13.4696 73.4199 12.6396C72.7099 11.8098 71.7198 11.3896 70.46 11.3896ZM90.2402 11.3896C88.9804 11.3896 87.8803 11.8098 86.9004 12.6396C85.9104 13.4696 85.2905 14.5902 85.0205 15.9902C84.7806 17.3902 85.0002 18.5001 85.7002 19.3301C86.4002 20.16 87.3704 20.5801 88.6104 20.5801V20.5703C89.8703 20.5703 91.0106 20.1495 92.0205 19.3096C93.0302 18.4697 93.6401 17.3499 93.8701 15.9502C94.1401 14.5702 93.9102 13.4696 93.2002 12.6396C92.4902 11.8098 91.5001 11.3897 90.2402 11.3896ZM34.9102 11.3799C33.6203 11.3799 32.5502 11.8098 31.7002 12.6797C30.8502 13.5497 30.4199 14.6405 30.4199 15.9805C30.42 17.3202 30.8504 18.4097 31.7002 19.2695C32.5502 20.1395 33.6202 20.5703 34.9102 20.5703C36.2001 20.5703 37.2697 20.1395 38.1396 19.2695C39.0095 18.3996 39.4403 17.3103 39.4404 15.9805C39.4404 14.6505 39.0096 13.5497 38.1396 12.6797C37.2697 11.81 36.1999 11.3799 34.9102 11.3799ZM64.2402 5.38965H57.9502L57.1006 10.25H52.5L53.3604 5.38965H47.1006L47.8701 1H65.0098L64.2402 5.38965Z" fill="url(#paint0_linear_59_5034)"/>
</g>
<defs>
<linearGradient id="paint0_linear_59_5034" x1="0" y1="12.3901" x2="122.49" y2="12.3901" gradientUnits="userSpaceOnUse">
<stop stop-color="#0057FF"/>
<stop offset="1" stop-color="#00BFFF"/>
</linearGradient>
<clipPath id="clip0_59_5034">
<rect width="122.49" height="24.76" fill="white"/>
</clipPath>
</defs>
</svg>
