<svg width="60" height="60" viewBox="0 0 60 60" fill="none" xmlns="http://www.w3.org/2000/svg">
<rect y="60" width="60" height="60" rx="8" transform="rotate(-90 0 60)" fill="url(#paint0_linear_61_14)"/>
<g clip-path="url(#clip0_61_14)">
<path d="M17.7021 18C19.9452 18 21.838 18.7499 23.3701 20.2598C24.9023 21.7698 25.6738 23.6203 25.6738 25.8203C25.6738 28.0202 24.9022 29.87 23.3701 31.3799C21.838 32.8899 19.9453 33.6396 17.7021 33.6396H13.6064V41.2998H9V18H17.7021ZM37.1299 27.25H45.8018L47.4336 18H52L47.9043 41.2998H43.3379L45.0303 31.6504H36.3682L34.666 41.2998H30.0693L31.7617 31.6504H36.3682L37.1299 27.25H32.543L31.7617 31.6504H27.165L27.9365 27.25H32.543L34.165 18H38.7617L37.1299 27.25ZM13.6064 29.3604H17.7021V29.3496C18.6835 29.3496 19.4948 29.0098 20.1357 28.3398C20.7765 27.6599 21.0967 26.83 21.0967 25.8301C21.0967 24.8301 20.7766 23.9698 20.1357 23.2998C19.4948 22.6298 18.6835 22.2998 17.7021 22.2998H13.6064V29.3604Z" fill="white"/>
</g>
<defs>
<linearGradient id="paint0_linear_61_14" x1="45.4286" y1="106.268" x2="12.3163" y2="68.6179" gradientUnits="userSpaceOnUse">
<stop stop-color="#8C5CF6"/>
<stop offset="1" stop-color="#D946EF"/>
</linearGradient>
<clipPath id="clip0_61_14">
<rect width="43" height="24" fill="white" transform="translate(9 18)"/>
</clipPath>
</defs>
</svg>
