<svg width="171" height="24" viewBox="0 0 171 24" fill="none" xmlns="http://www.w3.org/2000/svg">
<g clip-path="url(#clip0_59_4904)">
<path d="M38.21 6.19043C40.6699 6.19044 42.7597 7.04024 44.4697 8.74023C46.1796 10.4401 47.0302 12.5197 47.0303 14.9795C47.0303 17.4395 46.1697 19.5197 44.4697 21.2197C42.7597 22.9197 40.6799 23.7695 38.21 23.7695C35.74 23.7695 33.6697 22.9197 31.9697 21.2197C30.2699 19.5198 29.4199 17.4394 29.4199 14.9795C29.42 12.5198 30.27 10.4401 31.9697 8.74023C33.6697 7.04023 35.75 6.19043 38.21 6.19043ZM86.3398 6.19043C88.7998 6.19043 90.8896 7.04029 92.5996 8.74023C94.3095 10.4401 95.16 12.5197 95.1602 14.9795C95.1602 17.4395 94.3096 19.5197 92.5996 21.2197C90.8896 22.9196 88.8098 23.7695 86.3398 23.7695C83.8699 23.7695 81.7996 22.9197 80.0996 21.2197C78.3998 19.5198 77.5605 17.4393 77.5605 14.9795C77.5607 12.5199 78.41 10.4401 80.0996 8.74023C81.7996 7.04028 83.8799 6.19048 86.3398 6.19043ZM163.24 6.19043C165.79 6.19046 167.79 7.11998 169.18 8.96973C170.57 10.8197 171.041 12.9702 170.601 15.4102C170.201 17.76 169.06 19.7397 167.19 21.3496C165.31 22.9596 163.18 23.7597 160.78 23.7598V23.7695C158.03 23.7695 155.951 22.84 154.561 20.9902C153.161 19.1403 152.71 16.9601 153.19 14.4502C153.66 12.0802 154.81 10.11 156.65 8.54004C158.49 6.97011 160.69 6.19043 163.24 6.19043ZM132.44 6.19043C134.9 6.19051 136.851 7.04032 138.271 8.74023C139.69 10.4401 140.17 12.5199 139.7 14.9795C139.66 15.4695 139.5 16.0602 139.23 16.7402H126.65C126.74 17.8099 127.15 18.5897 127.88 19.0996C128.61 19.6095 129.53 19.8701 130.64 19.8701C132.3 19.8701 133.67 19.2999 134.73 18.1699L137.76 20.5996C135.9 22.7096 133.41 23.7598 130.3 23.7598C127.55 23.7597 125.46 22.8797 124.021 21.1299C122.591 19.3799 122.08 17.2096 122.51 14.6396C122.89 12.2198 124.02 10.2096 125.9 8.59961H125.92C127.81 6.98965 129.98 6.19043 132.44 6.19043ZM68.4854 6.19043C70.3881 6.19373 71.9029 6.81325 73.0498 8.0498C74.1898 9.2898 74.7598 10.96 74.7598 13.04V23.29H70.4697V13.3398C70.4697 12.3399 70.2302 11.5597 69.7402 11.0098C69.2502 10.4598 68.5597 10.1797 67.6797 10.1797C66.6999 10.1798 65.9403 10.5005 65.4004 11.1504C64.8605 11.7904 64.5898 12.7303 64.5898 13.9502V23.2998H60.2998V13.3496C60.2998 12.3498 60.0603 11.5695 59.5703 11.0195C59.0803 10.4696 58.3897 10.1895 57.5098 10.1895C56.55 10.1895 55.8004 10.5103 55.2305 11.1602C54.6705 11.8002 54.3799 12.74 54.3799 13.96V23.3096H50.0898V6.66016H54.3799V8.41992C55.3798 6.93 56.9199 6.19051 59.0098 6.19043C61.0997 6.19043 62.56 6.98991 63.54 8.58984C64.6476 6.99345 66.2927 6.194 68.4854 6.19043ZM8.69043 0C10.9301 9.59943e-05 12.8198 0.75007 14.3496 2.25977C15.8796 3.76977 16.6504 5.62031 16.6504 7.82031C16.6503 10.0202 15.8795 11.87 14.3496 13.3799C12.8197 14.8897 10.9302 15.6396 8.69043 15.6396H4.59961V23.2998H0V0H8.69043ZM28.4297 11.1104C27.1198 10.9504 25.9498 11.2202 24.9199 11.9102C23.8901 12.6002 23.3701 13.74 23.3701 15.3398V23.2998H19.0801V6.66016H23.3701V9.51953C23.7701 8.44989 24.4299 7.66005 25.3496 7.12012C26.2695 6.59018 27.2998 6.32037 28.4297 6.32031V11.1104ZM107.09 9.25H115.75L117.38 0H121.94L117.85 23.2998H113.29L114.98 13.6504H106.33L104.63 23.2998H100.04L101.73 13.6504H106.33L107.09 9.25H102.51L101.729 13.6504H97.1396L97.9102 9.25H102.51L104.13 0H108.72L107.09 9.25ZM152.649 11.1104C151.87 11.0204 151.11 11.0699 150.37 11.2598C149.63 11.4498 148.91 11.88 148.22 12.54C147.53 13.21 147.08 14.0801 146.86 15.1699L145.43 23.29H141.14L144.07 6.65039H148.36L147.89 9.30957V9.32031C149.09 7.28042 150.95 6.28042 153.479 6.32031L152.649 11.1104ZM162.71 10.3896C161.45 10.3897 160.35 10.8098 159.37 11.6396C158.38 12.4696 157.75 13.5902 157.49 14.9902C157.25 16.3901 157.47 17.5001 158.17 18.3301C158.87 19.1601 159.84 19.5801 161.08 19.5801V19.5703C162.35 19.5703 163.48 19.1496 164.49 18.3096C165.5 17.4697 166.11 16.3499 166.34 14.9502C166.61 13.5702 166.38 12.4696 165.67 11.6396C164.96 10.8098 163.97 10.3896 162.71 10.3896ZM38.21 10.3799C36.92 10.3799 35.85 10.8098 35 11.6797C34.1401 12.5496 33.7198 13.6397 33.7197 14.9795C33.7197 16.3194 34.1501 17.4096 35 18.2695C35.85 19.1395 36.92 19.5703 38.21 19.5703C39.4999 19.5703 40.5695 19.1395 41.4395 18.2695C42.3095 17.3995 42.7402 16.3095 42.7402 14.9795C42.7401 13.6497 42.3094 12.5496 41.4395 11.6797C40.5695 10.8099 39.4998 10.3799 38.21 10.3799ZM86.3398 10.3799C85.05 10.3799 83.9798 10.8098 83.1299 11.6797C82.28 12.5496 81.8497 13.6397 81.8496 14.9795C81.8496 16.3193 82.2801 17.4096 83.1299 18.2695C83.9898 19.1395 85.0599 19.5703 86.3398 19.5703C87.6198 19.5703 88.7003 19.1395 89.5703 18.2695C90.4401 17.3996 90.8701 16.3093 90.8701 14.9795C90.87 13.6497 90.4402 12.5496 89.5703 11.6797C88.7003 10.8097 87.6298 10.3799 86.3398 10.3799ZM132.19 10.0498C131.08 10.0498 130.1 10.34 129.24 10.9199C128.38 11.4999 127.72 12.3199 127.26 13.3799H135.72C135.7 12.25 135.36 11.4101 134.7 10.8701C134.05 10.3302 133.21 10.0499 132.19 10.0498ZM4.59961 11.3604H8.69043V11.3496C9.67024 11.3495 10.4802 11.0097 11.1201 10.3398C11.76 9.65989 12.0801 8.82997 12.0801 7.83008C12.0801 6.83008 11.7601 5.9698 11.1201 5.2998C10.4802 4.62993 9.67022 4.2999 8.69043 4.2998H4.59961V11.3604Z" fill="url(#paint0_linear_59_4904)"/>
</g>
<defs>
<linearGradient id="paint0_linear_59_4904" x1="0" y1="11.8848" x2="170.76" y2="11.8848" gradientUnits="userSpaceOnUse">
<stop stop-color="#8C5CF6"/>
<stop offset="1" stop-color="#D946EF"/>
</linearGradient>
<clipPath id="clip0_59_4904">
<rect width="170.76" height="23.77" fill="white"/>
</clipPath>
</defs>
</svg>
