<svg width="163" height="30" viewBox="0 0 163 30" fill="none" xmlns="http://www.w3.org/2000/svg">
<g clip-path="url(#clip0_59_4861)">
<path d="M45.9404 6.19043C48.1802 6.19054 50.0998 7.04034 51.6797 8.74023C53.2696 10.4401 54.0595 12.5197 54.0596 14.9795C54.0596 17.4395 53.2697 19.5197 51.6797 21.2197C50.0898 22.9196 48.1802 23.7694 45.9404 23.7695C43.7004 23.7695 41.8098 22.9598 40.5498 21.3398V29.96H36.2598V6.66016H40.5498V8.62012C41.8098 7.00012 43.6104 6.19043 45.9404 6.19043ZM141.9 6.20996C143.34 6.21 144.611 6.51969 145.69 7.13965C146.77 7.75964 147.58 8.63027 148.09 9.74023L144.23 11.6699C143.83 10.5599 142.98 10.0098 141.67 10.0098C140.36 10.0098 139.64 10.4905 139.44 11.4404C139.351 11.9502 139.58 12.3497 140.12 12.6396C140.66 12.9296 141.35 13.1802 142.18 13.4102C143.009 13.6401 143.83 13.8996 144.64 14.2295C145.45 14.5494 146.09 15.1098 146.55 15.8896C147.02 16.6796 147.14 17.6904 146.92 18.9404C146.63 20.5601 145.85 21.7702 144.57 22.5801C143.29 23.39 141.72 23.79 139.86 23.79L139.87 23.7695C136.48 23.7695 134.22 22.4097 133.11 19.6797L136.97 17.75C137.41 19.17 138.5 19.8799 140.23 19.8799C141.67 19.8798 142.48 19.4499 142.66 18.5801C142.73 18.1101 142.48 17.7402 141.93 17.4502C141.37 17.1603 140.69 16.9003 139.87 16.6504C139.05 16.4004 138.24 16.1095 137.44 15.7695C136.64 15.4295 136.01 14.8496 135.54 14.0596C135.07 13.2696 134.94 12.2695 135.14 11.0996C135.43 9.54973 136.221 8.34019 137.521 7.49023C138.82 6.6403 140.28 6.20996 141.9 6.20996ZM156.51 6.20996C157.95 6.20996 159.22 6.51975 160.3 7.13965C161.38 7.75965 162.19 8.63023 162.7 9.74023L158.84 11.6699C158.44 10.5601 157.59 10.0099 156.28 10.0098C154.97 10.0098 154.25 10.4904 154.05 11.4404C153.96 11.95 154.19 12.3498 154.729 12.6396C155.269 12.9296 155.96 13.1802 156.79 13.4102C157.62 13.6401 158.44 13.8995 159.25 14.2295C160.06 14.5495 160.7 15.1097 161.16 15.8896C161.63 16.6796 161.75 17.6904 161.53 18.9404C161.24 20.5602 160.46 21.7701 159.18 22.5801C157.9 23.39 156.33 23.79 154.47 23.79L154.479 23.7695C151.09 23.7694 148.83 22.4096 147.72 19.6797L151.58 17.75C152.02 19.1699 153.11 19.8798 154.84 19.8799C156.28 19.8799 157.089 19.4499 157.27 18.5801C157.34 18.1101 157.09 17.7402 156.54 17.4502C155.98 17.1602 155.299 16.9004 154.479 16.6504C153.66 16.4004 152.85 16.1095 152.05 15.7695C151.25 15.4295 150.62 14.8495 150.15 14.0596C149.68 13.2696 149.55 12.2696 149.75 11.0996C150.04 9.54985 150.83 8.34017 152.13 7.49023C153.43 6.64027 154.89 6.21 156.51 6.20996ZM24.4004 6.19043C26.8603 6.1905 28.9502 7.0403 30.6602 8.74023C32.3699 10.4401 33.2196 12.5198 33.2197 14.9795C33.2197 17.4394 32.3701 19.5198 30.6602 21.2197C28.9502 22.9197 26.8703 23.7695 24.4004 23.7695C21.9304 23.7695 19.8602 22.9197 18.1602 21.2197C16.4602 19.5197 15.6104 17.4395 15.6104 14.9795C15.6105 12.5197 16.4603 10.4401 18.1602 8.74023C19.8602 7.04023 21.9404 6.19043 24.4004 6.19043ZM90.1104 6.19043C91.8202 6.1905 93.2801 6.58019 94.5 7.37012C95.7198 8.16003 96.5999 9.20975 97.1299 10.5195L93.2402 12.5801C92.6403 11.1402 91.48 10.42 89.7402 10.4199C88.4503 10.4199 87.3 10.84 86.29 11.6699C85.28 12.4999 84.6595 13.5699 84.4395 14.8799C84.2195 16.2099 84.4497 17.3204 85.1396 18.1904C85.8296 19.0702 86.8098 19.4999 88.0996 19.5C89.8296 19.5 91.2095 18.7595 92.2295 17.2695L95.6895 19.5C94.8495 20.8799 93.7195 21.9302 92.3096 22.6602C90.8997 23.39 89.3794 23.7598 87.7295 23.7598L87.75 23.7695C85.1701 23.7695 83.16 22.89 81.71 21.1201C80.26 19.3602 79.7403 17.2002 80.1602 14.6504C80.5402 12.2104 81.66 10.1898 83.54 8.58984C85.42 6.98992 87.6104 6.19043 90.1104 6.19043ZM107.68 6.19043C109.39 6.19043 110.85 6.58012 112.07 7.37012C113.29 8.16004 114.17 9.20977 114.7 10.5195L110.81 12.5801C110.21 11.1401 109.05 10.4199 107.31 10.4199C106.02 10.42 104.87 10.8401 103.86 11.6699C102.85 12.4999 102.23 13.5699 102.01 14.8799C101.79 16.2099 102.02 17.3204 102.71 18.1904C103.4 19.0702 104.38 19.5 105.67 19.5C107.4 19.5 108.78 18.7595 109.8 17.2695L113.26 19.5C112.42 20.8799 111.29 21.9302 109.88 22.6602C108.47 23.3901 106.95 23.7598 105.3 23.7598L105.32 23.7695C102.74 23.7695 100.73 22.8899 99.2803 21.1201C97.8304 19.3602 97.3096 17.2002 97.7295 14.6504C98.1095 12.2104 99.2304 10.1898 101.11 8.58984C102.99 6.99006 105.18 6.19049 107.68 6.19043ZM125.22 6.19043C127.68 6.19043 129.62 7.04023 131.04 8.74023C132.46 10.4401 132.94 12.5197 132.47 14.9795C132.43 15.4695 132.27 16.0602 132 16.7402H119.42C119.51 17.8101 119.92 18.5897 120.65 19.0996C121.38 19.6096 122.3 19.8701 123.41 19.8701C125.07 19.8701 126.44 19.2999 127.5 18.1699L130.53 20.5996C128.67 22.7096 126.18 23.7597 123.07 23.7598C120.32 23.7598 118.23 22.8799 116.8 21.1299C115.37 19.3799 114.86 17.2096 115.29 14.6396C115.67 12.2198 116.8 10.2095 118.69 8.59961H118.7C120.59 6.98982 122.76 6.19051 125.22 6.19043ZM17.1396 4.38965H10.8496V23.2998H6.25977V4.38965H0V0H17.1396V4.38965ZM77.79 23.2998H72.8301L72.2295 19.1104H62.9102L60.75 23.2998H55.7197L60.8096 13.6504H65.75L65.1396 14.8096H71.5996L70.2002 5.08984L68.04 9.25H63.1299L68.0098 0H73.7002L77.79 23.2998ZM45.1299 10.29C43.8 10.2901 42.6998 10.7297 41.8398 11.5996C40.9699 12.4795 40.5401 13.5997 40.54 14.9795C40.54 16.3595 40.9698 17.4804 41.8398 18.3604C42.7098 19.2402 43.8 19.6797 45.1299 19.6797C46.4599 19.6797 47.5704 19.2404 48.4404 18.3604C49.3204 17.4804 49.7598 16.3595 49.7598 14.9795C49.7597 13.5997 49.3203 12.4795 48.4404 11.5996C47.5604 10.7196 46.4599 10.29 45.1299 10.29ZM24.4004 10.3799C23.1105 10.3799 22.0404 10.8099 21.1904 11.6797C20.3405 12.5496 19.9103 13.6397 19.9102 14.9795C19.9102 16.3195 20.3405 17.4095 21.1904 18.2695C22.0404 19.1395 23.1104 19.5703 24.4004 19.5703C25.6903 19.5702 26.7599 19.1395 27.6299 18.2695C28.4998 17.3995 28.9297 16.3094 28.9297 14.9795C28.9296 13.6497 28.4998 12.5496 27.6299 11.6797C26.76 10.8099 25.6901 10.3799 24.4004 10.3799ZM60.8096 13.6504H55.8799L58.2197 9.25H63.1299L60.8096 13.6504ZM124.96 10.0498C123.85 10.0498 122.87 10.3399 122.01 10.9199C121.16 11.4999 120.5 12.32 120.03 13.3799H128.49C128.47 12.2499 128.13 11.4101 127.47 10.8701C126.82 10.3302 125.98 10.0498 124.96 10.0498Z" fill="url(#paint0_linear_59_4861)"/>
</g>
<defs>
<linearGradient id="paint0_linear_59_4861" x1="0" y1="14.98" x2="162.7" y2="14.98" gradientUnits="userSpaceOnUse">
<stop stop-color="#F97215"/>
<stop offset="1" stop-color="#F69D0B"/>
</linearGradient>
<clipPath id="clip0_59_4861">
<rect width="162.71" height="29.96" fill="white"/>
</clipPath>
</defs>
</svg>
