<svg width="60" height="60" viewBox="0 0 60 60" fill="none" xmlns="http://www.w3.org/2000/svg">
<rect y="60" width="60" height="60" rx="8" transform="rotate(-90 0 60)" fill="url(#paint0_linear_61_12)"/>
<path d="M28.4502 26.7295C28.2402 27.3794 28.0702 28.0598 27.9502 28.7598C27.8102 29.5697 27.75 30.3601 27.75 31.1201H32.3604C32.4204 32.4799 32.8305 33.6502 33.6104 34.6201C34.7603 36.0399 36.4804 36.7499 38.79 36.75C42.6098 36.75 45.1601 35.27 46.4502 32.3203H39.6299L40.3301 28.2598L40.3203 28.2402H52L51.7002 30.04C51.1202 33.4399 49.6099 36.1497 47.1699 38.1797C44.7301 40.2195 41.9403 41.2294 38.3506 41.2295C34.7608 41.2294 31.9699 40.0198 30 37.5898C28.4902 35.74 27.7305 33.5799 27.7305 31.1201H23C22.99 30.3601 23.0602 29.5797 23.2002 28.7598C23.3202 28.0598 23.4902 27.3794 23.7002 26.7295H28.4502ZM25.1396 21.8594H18.8496V40.7695H14.2598V21.8701H8V17.4697H25.1396V21.8594ZM41.7598 17C44.0696 17 46.0503 17.4897 47.7002 18.4795C49.3502 19.4695 50.6105 20.8602 51.4805 22.6602L47.29 24.8604C46.11 22.6005 44.13 21.4697 41.3301 21.4697C39.0903 21.4698 37.1504 22.1702 35.5205 23.5801V23.5703C34.5007 24.4602 33.7302 25.4999 33.2002 26.7197H28.4502C29.2402 24.22 30.6502 22.09 32.71 20.3301C35.2998 18.1102 38.3201 17.0002 41.7598 17Z" fill="white"/>
<defs>
<linearGradient id="paint0_linear_61_12" x1="45.4286" y1="106.268" x2="12.3163" y2="68.6179" gradientUnits="userSpaceOnUse">
<stop stop-color="#FF5817"/>
<stop offset="1" stop-color="#FF001E"/>
</linearGradient>
</defs>
</svg>
