<svg width="131" height="25" viewBox="0 0 131 25" fill="none" xmlns="http://www.w3.org/2000/svg">
<g clip-path="url(#clip0_59_4947)">
<path d="M111.88 6.83984C113.32 6.83985 114.59 7.14965 115.67 7.76953C116.76 8.38953 117.56 9.26013 118.07 10.3701L114.21 12.2998C113.81 11.19 112.96 10.6398 111.65 10.6396C110.34 10.6396 109.62 11.1203 109.42 12.0703C109.33 12.58 109.56 12.9796 110.1 13.2695C110.64 13.5595 111.33 13.81 112.16 14.04C112.99 14.26 113.81 14.5304 114.62 14.8604C115.43 15.1803 116.07 15.7397 116.53 16.5195C117 17.3095 117.12 18.3203 116.9 19.5703C116.61 21.1902 115.83 22.4 114.55 23.21C113.27 24.0199 111.7 24.4199 109.84 24.4199L109.85 24.4004C106.45 24.4003 104.2 23.0394 103.09 20.3096L106.95 18.3799C107.39 19.7999 108.48 20.5097 110.21 20.5098C111.65 20.5098 112.46 20.0799 112.64 19.21C112.71 18.74 112.46 18.3701 111.91 18.0801C111.36 17.7901 110.67 17.5303 109.85 17.2803C109.03 17.0403 108.22 16.7403 107.42 16.4004C106.62 16.0605 105.99 15.4801 105.521 14.6904C105.051 13.8904 104.92 12.8995 105.12 11.7295C105.41 10.1798 106.2 8.97003 107.5 8.12012C108.8 7.27016 110.26 6.83987 111.88 6.83984ZM95.2002 6.83008C97.6601 6.83012 99.6103 7.67992 101.03 9.37988C102.45 11.0799 102.93 13.1602 102.46 15.6201C102.42 16.1101 102.26 16.7 101.99 17.3799H89.4102C89.5002 18.4498 89.9097 19.2302 90.6396 19.7402C91.3696 20.2502 92.2904 20.5098 93.4004 20.5098C95.0602 20.5097 96.4303 19.9395 97.4902 18.8096L100.521 21.2402C98.6605 23.3502 96.1696 24.4004 93.0596 24.4004C90.3098 24.4003 88.22 23.5194 86.79 21.7695C85.3603 20.0196 84.8504 17.85 85.2803 15.2803C85.6602 12.8604 86.7899 10.8502 88.6797 9.24023C90.5697 7.63025 92.7402 6.83008 95.2002 6.83008ZM40.75 9.88965C40.54 10.5396 40.37 11.22 40.25 11.9199C40.11 12.7299 40.0498 13.5203 40.0498 14.2803H44.6602C44.7202 15.6402 45.1302 16.8103 45.9102 17.7803C47.0601 19.2001 48.7801 19.9101 51.0898 19.9102C54.9097 19.9101 57.46 18.4302 58.75 15.4805H51.9297L52.6299 11.4199L52.6201 11.4004H64.2998L64 13.2002C63.42 16.6001 61.9097 19.3099 59.4697 21.3398C57.0298 23.3797 54.2401 24.3896 50.6504 24.3896C47.0604 24.3896 44.2698 23.18 42.2998 20.75C40.7899 18.9001 40.0303 16.7401 40.0303 14.2803H35.2998C35.2898 13.5203 35.36 12.7399 35.5 11.9199C35.62 11.22 35.79 10.5396 36 9.88965H40.75ZM70.6602 16.9697C70.4602 18.0997 70.6104 18.9603 71.1104 19.5303C71.6104 20.11 72.3606 20.4004 73.3604 20.4004C74.3602 20.4003 75.2702 20.0999 76.04 19.5C76.81 18.9 77.3404 17.9997 77.6504 16.7998L79.3203 7.28027L79.3301 7.29004H83.6201L80.6895 23.9297H76.4004L76.7295 22.1299C75.4196 23.6397 73.7001 24.3895 71.5703 24.3896C69.7105 24.3896 68.2602 23.7701 67.2402 22.5303C66.2202 21.2903 65.8995 19.61 66.2695 17.5L68.0703 7.28027H72.3604L70.6602 16.9697ZM126.89 7.26953H130.68L129.91 11.4004H126.18L126.19 11.4199L124.96 18.3398C124.8 19.2098 124.99 19.7304 125.53 19.9004C126.07 20.0703 127.03 20.1202 128.43 20.0303L127.76 23.9199C124.96 24.2499 122.98 23.9597 121.82 23.0498C120.65 22.1398 120.27 20.5601 120.67 18.3203L121.9 11.4004H119L119.729 7.26953H122.59L123.19 3.91016L127.72 2.61035L126.89 7.26953ZM17.1396 5.01953H10.8496V23.9297H6.25977V5.03027H0V0.629883H17.1396V5.01953ZM26.7598 11.7402C25.4498 11.5803 24.28 11.8501 23.25 12.54C22.22 13.23 21.7002 14.3698 21.7002 15.9697V23.9297H17.4102V7.29004H21.7002V10.1504C22.1002 9.08046 22.7598 8.29 23.6797 7.75C24.5996 7.22002 25.6298 6.95022 26.7598 6.9502V11.7402ZM33.5498 23.9297H29.2598V7.29004H33.5498V23.9297ZM94.9404 10.6797C93.8305 10.6797 92.8502 10.9699 91.9902 11.5498C91.1403 12.1298 90.4798 12.9498 90.0098 14.0098H98.4697C98.4497 12.8799 98.1101 12.04 97.4502 11.5C96.8003 10.9601 95.9602 10.6798 94.9404 10.6797ZM54.0596 0.160156C56.3695 0.160162 58.35 0.649711 60 1.63965C61.65 2.62965 62.9103 4.02032 63.7803 5.82031L59.5898 8.02051C58.4099 5.76052 56.4299 4.62989 53.6299 4.62988C51.39 4.6299 49.4503 5.33032 47.8203 6.74023V6.73047C46.8004 7.62043 46.03 8.65996 45.5 9.87988H40.75C41.54 7.38004 42.9499 5.25016 45.0098 3.49023C47.5997 1.27033 50.6197 0.160241 54.0596 0.160156ZM31.3896 0C32.0995 0 32.7496 0.270028 33.2695 0.799805C33.7895 1.3298 34.0498 1.95016 34.0498 2.66016C34.0498 3.37009 33.7895 3.9898 33.2695 4.50977C32.7496 5.02968 32.1196 5.29004 31.3896 5.29004C30.6798 5.28995 30.06 5.02968 29.54 4.50977C29.0201 3.98983 28.7598 3.37004 28.7598 2.66016C28.7598 1.95016 29.02 1.3298 29.54 0.799805C30.0599 0.26997 30.6798 9.13713e-05 31.3896 0Z" fill="url(#paint0_linear_59_4947)"/>
</g>
<defs>
<linearGradient id="paint0_linear_59_4947" x1="0" y1="12.21" x2="130.68" y2="12.21" gradientUnits="userSpaceOnUse">
<stop stop-color="#FF001E"/>
<stop offset="1" stop-color="#FF5817"/>
</linearGradient>
<clipPath id="clip0_59_4947">
<rect width="130.68" height="24.4" fill="white"/>
</clipPath>
</defs>
</svg>
